# xmcd
#
# Track frame offsets:
#	150
#	12307
#	27915
#	41432
#	52627
#	69082
#	84862
#	100337
#	114057
#	127902
#	137225
#	153167
#	169352
#	190687
#	209917
#	229095
#	244502
#	255057
#	270015
#	289582
#
# Disc length: 4041
#
# Revision: 3
# Processed by: cddbd v1.5.1PL0 Copyright (c) Steve Scherf et al.
# Submitted via: audiograbber 1.83.01
# Normalized: r2:DSETVAR1
#
DISCID=ef0fc714
DTITLE=Various Artist - Verzeih mir
DYEAR=1993
DGENRE=Blues
TTITLE0=Brenda Lee - I'm Sorry
TTITLE1=Paul Anka - Who's Sorry Now
TTITLE2=The Hollies - Sorry Suzanne
TTITLE3=Showaddywaddy - Sorry, I Ran All The Way Home
TTITLE4=Baccara - Sorry, I'm A Lady
TTITLE5=Bonnie Tyler - It's A Heartache
TTITLE6=Greg Kihn - Sorry
TTITLE7=Dollar - I Wanna Hold Your Hand
TTITLE8=Paul Young - Love Hurts
TTITLE9=Frank Duval - Sorry To Leave You
TTITLE10=Blue System - Sorry Little Sarah
TTITLE11=Engelbert - Sorry Seems To Be The Hardest Word
TTITLE12=Hot Chocolate - I'm Sorry
TTITLE13=Maggie Reilly - I'm Sorry
TTITLE14=Keith Marchall - Only Crying
TTITLE15=Sandie Shaw - Stop Feelin' Sorry For Yourself
TTITLE16=Kenny Ball - Someday (You'll Be Sorry)
TTITLE17=Colin Blunstone - Say You Don't Mind
TTITLE18=Robin Beck - If It Don't Hurt
TTITLE19=The Searchers - Verzeih My Love (Goodbye My Love)
EXTD=
EXTT0=
EXTT1=
EXTT2=
EXTT3=
EXTT4=
EXTT5=
EXTT6=
EXTT7=
EXTT8=
EXTT9=
EXTT10=
EXTT11=
EXTT12=
EXTT13=
EXTT14=
EXTT15=
EXTT16=
EXTT17=
EXTT18=
EXTT19=
PLAYORDER=
